<svg width="19" height="19" viewBox="0 0 19 19" fill="none" xmlns="http://www.w3.org/2000/svg">
<path d="M18.4978 9.71672C18.4978 9.0963 18.4378 8.45587 18.3377 7.85547H9.67188V11.3978H14.6352C14.4351 12.5386 13.7746 13.5393 12.794 14.1797L15.756 16.4813C17.4971 14.8602 18.4978 12.4986 18.4978 9.71672Z" fill="#4280EF"/>
<path d="M9.68208 18.6862C12.1637 18.6862 14.2451 17.8657 15.7662 16.4647L12.8042 14.1832C11.9836 14.7436 10.9229 15.0638 9.68208 15.0638C7.28046 15.0638 5.2591 13.4427 4.51861 11.2812L1.47656 13.6228C3.03761 16.7249 6.19974 18.6862 9.68208 18.6862Z" fill="#34A353"/>
<path d="M4.5177 11.2629C4.13744 10.1221 4.13744 8.88126 4.5177 7.74049L1.47566 5.37891C0.174781 7.98066 0.174781 11.0427 1.47566 13.6244L4.5177 11.2629Z" fill="#F6B704"/>
<path d="M9.68208 3.9553C10.983 3.93528 12.2638 4.43562 13.2044 5.33623L15.8262 2.69445C14.1651 1.1334 11.9636 0.292836 9.68208 0.312849C6.19974 0.312849 3.03761 2.27417 1.47656 5.37625L4.51861 7.73784C5.2591 5.55637 7.28046 3.9553 9.68208 3.9553Z" fill="#E54335"/>
</svg>
