<svg width="22" height="21" viewBox="0 0 22 21" fill="none" xmlns="http://www.w3.org/2000/svg">
<path d="M11 0.578125C5.0629 0.578125 0.25 4.37298 0.25 9.05409C0.25 12.0805 2.26211 14.7361 5.28886 16.2356C5.12419 16.8035 4.2307 19.889 4.19515 20.1313C4.19515 20.1313 4.17375 20.3135 4.29169 20.3829C4.40963 20.4524 4.54835 20.3984 4.54835 20.3984C4.88656 20.3512 8.47034 17.8338 9.09063 17.3967C9.71031 17.4845 10.3484 17.5301 11 17.5301C16.9371 17.5301 21.75 13.7353 21.75 9.05409C21.75 4.37298 16.9371 0.578125 11 0.578125Z" fill="#FFE812"/>
<path d="M5.04808 12.0108C4.70604 12.0108 4.42788 11.7452 4.42788 11.4185V7.73407H3.46018C3.12455 7.73407 2.85156 7.4616 2.85156 7.1268C2.85156 6.792 3.12465 6.51953 3.46018 6.51953H6.63598C6.9716 6.51953 7.24459 6.792 7.24459 7.1268C7.24459 7.4616 6.9715 7.73407 6.63598 7.73407H5.66827V11.4185C5.66827 11.7452 5.39011 12.0108 5.04808 12.0108ZM10.4863 12.0028C10.2277 12.0028 10.0299 11.8977 9.97023 11.7288L9.66314 10.9249L7.77196 10.9248L7.46466 11.7292C7.40522 11.8978 7.20748 12.0028 6.94886 12.0028C6.81283 12.0029 6.67836 11.9737 6.55463 11.9172C6.38366 11.8383 6.21931 11.6214 6.40764 11.0365L7.89114 7.13176C7.99565 6.8348 8.31308 6.52883 8.71703 6.51963C9.12212 6.52873 9.43956 6.8348 9.54427 7.13238L11.0271 11.0354C11.2159 11.6216 11.0515 11.8386 10.8806 11.9173C10.7568 11.9737 10.6224 12.0029 10.4863 12.0028ZM9.33702 9.82629L8.71755 8.0665L8.09808 9.82629H9.33702ZM12.0252 11.9204C11.6975 11.9204 11.4309 11.6653 11.4309 11.3519V7.13972C11.4309 6.79769 11.7149 6.51953 12.064 6.51953C12.4131 6.51953 12.6971 6.79769 12.6971 7.13972V10.7834H14.015C14.3428 10.7834 14.6094 11.0385 14.6094 11.3519C14.6094 11.6653 14.3428 11.9204 14.015 11.9204H12.0252ZM15.4708 12.0028C15.1288 12.0028 14.8506 11.7246 14.8506 11.3826V7.13972C14.8506 6.79769 15.1288 6.51953 15.4708 6.51953C15.8129 6.51953 16.091 6.79769 16.091 7.13972V8.47272L17.8214 6.74239C17.9104 6.65339 18.0326 6.60439 18.1654 6.60439C18.3202 6.60439 18.4757 6.67117 18.5922 6.78756C18.7008 6.89609 18.7656 7.03574 18.7745 7.18076C18.7835 7.32702 18.7348 7.46109 18.6376 7.55835L17.2243 8.97146L18.7509 10.9939C18.8002 11.0588 18.8361 11.1328 18.8566 11.2117C18.877 11.2906 18.8816 11.3727 18.87 11.4534C18.8589 11.5341 18.832 11.6118 18.7907 11.682C18.7494 11.7522 18.6945 11.8135 18.6294 11.8624C18.5221 11.9439 18.391 11.9879 18.2563 11.9876C18.1602 11.988 18.0654 11.9659 17.9793 11.9231C17.8933 11.8803 17.8185 11.818 17.7609 11.741L16.3064 9.81389L16.0912 10.0291V11.3823C16.091 11.5467 16.0256 11.7044 15.9093 11.8208C15.793 11.9371 15.6353 12.0025 15.4708 12.0028Z" fill="#FFE812"/>
</svg>
