<svg width="53" height="52" viewBox="0 0 53 52" fill="none" xmlns="http://www.w3.org/2000/svg">
<path d="M26 10C16.6111 10 9 16.0012 9 23.4038C9 28.1898 12.1819 32.3893 16.9684 34.7607C16.708 35.6587 15.2951 40.5381 15.2388 40.9214C15.2388 40.9214 15.205 41.2094 15.3915 41.3192C15.578 41.4291 15.7974 41.3438 15.7974 41.3438C16.3322 41.2691 21.9996 37.2881 22.9805 36.5968C23.9605 36.7356 24.9695 36.8077 26 36.8077C35.3889 36.8077 43 30.8067 43 23.4038C43 16.0012 35.3889 10 26 10Z" fill="#3C1E1E"/>
<path d="M16.601 28.0828C16.0601 28.0828 15.6202 27.6627 15.6202 27.1462V21.3196H14.0899C13.5591 21.3196 13.1274 20.8887 13.1274 20.3593C13.1274 19.8298 13.5593 19.3989 14.0899 19.3989H19.1121C19.6429 19.3989 20.0746 19.8298 20.0746 20.3593C20.0746 20.8887 19.6427 21.3196 19.1121 21.3196H17.5818V27.1462C17.5818 27.6627 17.1419 28.0828 16.601 28.0828ZM25.201 28.0701C24.7921 28.0701 24.4792 27.904 24.3849 27.6369L23.8992 26.3655L20.9085 26.3653L20.4226 27.6376C20.3286 27.9042 20.0159 28.0701 19.6069 28.0701C19.3918 28.0703 19.1791 28.0241 18.9835 27.9347C18.7131 27.81 18.4532 27.4671 18.751 26.542L21.097 20.3671C21.2623 19.8975 21.7643 19.4136 22.4031 19.3991C23.0437 19.4135 23.5457 19.8975 23.7112 20.3681L26.0563 26.5402C26.3547 27.4674 26.0948 27.8105 25.8245 27.9349C25.6288 28.0241 25.4161 28.0702 25.201 28.0701ZM23.3835 24.6282L22.4039 21.8453L21.4243 24.6282H23.3835ZM27.6347 27.9398C27.1163 27.9398 26.6947 27.5364 26.6947 27.0408V20.3797C26.6947 19.8388 27.1439 19.3989 27.696 19.3989C28.248 19.3989 28.6972 19.8388 28.6972 20.3797V26.1417H30.7813C31.2996 26.1417 31.7212 26.5451 31.7212 27.0408C31.7212 27.5364 31.2996 27.9398 30.7813 27.9398H27.6347ZM33.0835 28.0701C32.5426 28.0701 32.1027 27.6302 32.1027 27.0893V20.3797C32.1027 19.8388 32.5426 19.3989 33.0835 19.3989C33.6244 19.3989 34.0643 19.8388 34.0643 20.3797V22.4877L36.8006 19.7513C36.9413 19.6106 37.1347 19.5331 37.3446 19.5331C37.5895 19.5331 37.8353 19.6387 38.0195 19.8228C38.1913 19.9944 38.2938 20.2153 38.3079 20.4446C38.3221 20.6759 38.2451 20.8879 38.0915 21.0417L35.8564 23.2764L38.2706 26.4747C38.3486 26.5773 38.4053 26.6944 38.4377 26.8191C38.47 26.9438 38.4772 27.0737 38.4589 27.2013C38.4414 27.3289 38.3988 27.4518 38.3335 27.5628C38.2681 27.6738 38.1814 27.7708 38.0784 27.8481C37.9088 27.977 37.7015 28.0466 37.4884 28.046C37.3365 28.0467 37.1865 28.0119 37.0504 27.9442C36.9144 27.8765 36.7961 27.7778 36.705 27.6562L34.4049 24.6086L34.0646 24.9489V27.0888C34.0643 27.3489 33.9608 27.5983 33.7769 27.7823C33.593 27.9662 33.3436 28.0697 33.0835 28.0701Z" fill="#FFEB00"/>
</svg>
