<svg width="52" height="52" viewBox="0 0 52 52" fill="none" xmlns="http://www.w3.org/2000/svg">
<path d="M42.1992 23.9466C42.1992 16.5443 34.8891 10.522 25.9033 10.522C16.9176 10.522 9.60742 16.5443 9.60742 23.9466C9.60742 30.583 15.4116 36.1417 23.2349 37.1914C23.7665 37.3077 24.4889 37.5465 24.6707 38.007C24.8357 38.4257 24.7792 39.0816 24.7242 39.5033C24.7242 39.5033 24.5332 40.6709 24.492 40.919C24.4202 41.3376 24.1636 42.5548 25.9033 41.8121C27.643 41.0694 35.2877 36.2022 38.7061 32.2064C41.0674 29.5782 42.1992 26.9051 42.1992 23.9466Z" fill="white"/>
<path d="M36.7774 28.2233H32.1951C32.1141 28.2233 32.0364 28.1906 31.9791 28.1325C31.9218 28.0743 31.8896 27.9954 31.8896 27.9132V20.6954C31.8896 20.6131 31.9218 20.5342 31.9791 20.4761C32.0364 20.4179 32.1141 20.3853 32.1951 20.3853H36.7774C36.8584 20.3853 36.9361 20.4179 36.9934 20.4761C37.0506 20.5342 37.0828 20.6131 37.0828 20.6954V21.8691C37.0828 21.9514 37.0506 22.0303 36.9934 22.0884C36.9361 22.1466 36.8584 22.1792 36.7774 22.1792H33.666V23.3964H36.7774C36.8584 23.3964 36.9361 23.4291 36.9934 23.4873C37.0506 23.5454 37.0828 23.6243 37.0828 23.7065V24.8912C37.0828 24.9734 37.0506 25.0523 36.9934 25.1104C36.9361 25.1686 36.8584 25.2013 36.7774 25.2013H33.666V26.42H36.7774C36.8584 26.42 36.9361 26.4527 36.9934 26.5108C37.0506 26.569 37.0828 26.6479 37.0828 26.7301V27.9023C37.0843 27.9439 37.0774 27.9854 37.0627 28.0243C37.048 28.0632 37.0257 28.0987 36.9972 28.1287C36.9687 28.1586 36.9346 28.1824 36.8968 28.1987C36.859 28.2149 36.8184 28.2233 36.7774 28.2233Z" fill="#06C755"/>
<path d="M19.8431 28.2214C19.9241 28.2214 20.0018 28.1887 20.0591 28.1306C20.1164 28.0724 20.1486 27.9936 20.1486 27.9113V26.7391C20.1486 26.6568 20.1164 26.578 20.0591 26.5198C20.0018 26.4617 19.9241 26.429 19.8431 26.429H16.7318V20.6919C16.7318 20.6097 16.6996 20.5308 16.6423 20.4727C16.585 20.4145 16.5073 20.3818 16.4263 20.3818H15.2654C15.1844 20.3818 15.1067 20.4145 15.0494 20.4727C14.9921 20.5308 14.96 20.6097 14.96 20.6919V27.9067C14.96 27.9889 14.9921 28.0678 15.0494 28.1259C15.1067 28.1841 15.1844 28.2168 15.2654 28.2168H19.8477L19.8431 28.2214Z" fill="#06C755"/>
<path d="M22.5986 20.3684H21.4439C21.2718 20.3684 21.1323 20.51 21.1323 20.6847V27.9041C21.1323 28.0788 21.2718 28.2204 21.4439 28.2204H22.5986C22.7707 28.2204 22.9102 28.0788 22.9102 27.9041V20.6847C22.9102 20.51 22.7707 20.3684 22.5986 20.3684Z" fill="#06C755"/>
<path d="M30.4663 20.3684H29.3116C29.2306 20.3684 29.1529 20.4011 29.0956 20.4592C29.0383 20.5174 29.0061 20.5963 29.0061 20.6785V24.9673L25.7527 20.5064C25.7453 20.4946 25.7366 20.4837 25.7268 20.4738L25.7085 20.4552L25.6917 20.4413H25.6825L25.6657 20.4289H25.6565L25.6397 20.4196H25.629H25.6122H25.6015H25.5832H25.571H25.5527H25.5404H25.5236H24.346C24.265 20.4196 24.1873 20.4522 24.13 20.5104C24.0727 20.5686 24.0405 20.6474 24.0405 20.7297V27.949C24.0405 28.0313 24.0727 28.1102 24.13 28.1683C24.1873 28.2265 24.265 28.2592 24.346 28.2592H25.5023C25.5833 28.2592 25.661 28.2265 25.7183 28.1683C25.7756 28.1102 25.8077 28.0313 25.8077 27.949V23.6184L29.0657 28.0839C29.087 28.1156 29.114 28.1429 29.1451 28.1646L29.1635 28.177H29.1726L29.1879 28.1847H29.2032H29.2139H29.2352C29.2622 28.1915 29.2899 28.1951 29.3177 28.1956H30.4663C30.5473 28.1956 30.625 28.1629 30.6823 28.1048C30.7396 28.0466 30.7718 27.9677 30.7718 27.8855V20.6847C30.7726 20.6435 30.7653 20.6025 30.7503 20.5641C30.7353 20.5258 30.713 20.4909 30.6845 20.4614C30.6561 20.432 30.6221 20.4086 30.5847 20.3926C30.5472 20.3766 30.507 20.3684 30.4663 20.3684Z" fill="#06C755"/>
</svg>
