<svg width="25" height="24" viewBox="0 0 25 24" fill="none" xmlns="http://www.w3.org/2000/svg">
<path d="M12.9444 4C18.1389 4 22.3889 7.38111 22.3889 11.5556C22.3889 15.73 18.1389 19.1111 12.9444 19.1111C11.7733 19.1111 10.6494 18.9411 9.61056 18.6389C6.85278 21 3.5 21 3.5 21C5.70056 18.7994 6.05 17.3167 6.09722 16.75C4.49167 15.3994 3.5 13.5672 3.5 11.5556C3.5 7.38111 7.75 4 12.9444 4ZM17.6667 12.5V10.6111H15.7778V12.5H17.6667ZM13.8889 12.5V10.6111H12V12.5H13.8889ZM10.1111 12.5V10.6111H8.22222V12.5H10.1111Z" fill="#024EA2"/>
</svg>
