<svg width="25" height="24" viewBox="0 0 25 24" fill="none" xmlns="http://www.w3.org/2000/svg">
<path d="M5.94444 4H7.72222V5.77778H5.94444V10.2222C5.94444 10.6937 5.75714 11.1459 5.42375 11.4793C5.09035 11.8127 4.63816 12 4.16667 12C4.63816 12 5.09035 12.1873 5.42375 12.5207C5.75714 12.8541 5.94444 13.3063 5.94444 13.7778V18.2222H7.72222V20H5.94444C4.99333 19.76 4.16667 19.2 4.16667 18.2222V14.6667C4.16667 14.1952 3.97937 13.743 3.64597 13.4096C3.31257 13.0762 2.86038 12.8889 2.38889 12.8889H1.5V11.1111H2.38889C2.86038 11.1111 3.31257 10.9238 3.64597 10.5904C3.97937 10.257 4.16667 9.80483 4.16667 9.33333V5.77778C4.16667 5.30628 4.35397 4.8541 4.68737 4.5207C5.02076 4.1873 5.47295 4 5.94444 4ZM18.3889 4C18.8604 4 19.3126 4.1873 19.646 4.5207C19.9794 4.8541 20.1667 5.30628 20.1667 5.77778V9.33333C20.1667 9.80483 20.354 10.257 20.6874 10.5904C21.0208 10.9238 21.4729 11.1111 21.9444 11.1111H22.8333V12.8889H21.9444C21.4729 12.8889 21.0208 13.0762 20.6874 13.4096C20.354 13.743 20.1667 14.1952 20.1667 14.6667V18.2222C20.1667 18.6937 19.9794 19.1459 19.646 19.4793C19.3126 19.8127 18.8604 20 18.3889 20H16.6111V18.2222H18.3889V13.7778C18.3889 13.3063 18.5762 12.8541 18.9096 12.5207C19.243 12.1873 19.6952 12 20.1667 12C19.6952 12 19.243 11.8127 18.9096 11.4793C18.5762 11.1459 18.3889 10.6937 18.3889 10.2222V5.77778H16.6111V4H18.3889ZM12.1667 14.6667C12.4024 14.6667 12.6285 14.7603 12.7952 14.927C12.9619 15.0937 13.0556 15.3198 13.0556 15.5556C13.0556 15.7913 12.9619 16.0174 12.7952 16.1841C12.6285 16.3508 12.4024 16.4444 12.1667 16.4444C11.9309 16.4444 11.7048 16.3508 11.5381 16.1841C11.3714 16.0174 11.2778 15.7913 11.2778 15.5556C11.2778 15.3198 11.3714 15.0937 11.5381 14.927C11.7048 14.7603 11.9309 14.6667 12.1667 14.6667ZM8.61111 14.6667C8.84686 14.6667 9.07295 14.7603 9.23965 14.927C9.40635 15.0937 9.5 15.3198 9.5 15.5556C9.5 15.7913 9.40635 16.0174 9.23965 16.1841C9.07295 16.3508 8.84686 16.4444 8.61111 16.4444C8.37536 16.4444 8.14927 16.3508 7.98257 16.1841C7.81587 16.0174 7.72222 15.7913 7.72222 15.5556C7.72222 15.3198 7.81587 15.0937 7.98257 14.927C8.14927 14.7603 8.37536 14.6667 8.61111 14.6667ZM15.7222 14.6667C15.958 14.6667 16.1841 14.7603 16.3508 14.927C16.5175 15.0937 16.6111 15.3198 16.6111 15.5556C16.6111 15.7913 16.5175 16.0174 16.3508 16.1841C16.1841 16.3508 15.958 16.4444 15.7222 16.4444C15.4865 16.4444 15.2604 16.3508 15.0937 16.1841C14.927 16.0174 14.8333 15.7913 14.8333 15.5556C14.8333 15.3198 14.927 15.0937 15.0937 14.927C15.2604 14.7603 15.4865 14.6667 15.7222 14.6667Z" fill="#464EB4"/>
</svg>
