<svg width="13" height="14" viewBox="0 0 13 14" fill="none" xmlns="http://www.w3.org/2000/svg">
<path d="M11.2893 2.9971C11.0126 2.72031 10.6842 2.50074 10.3226 2.35093C9.96107 2.20113 9.57356 2.12402 9.18221 2.12402C8.79086 2.12402 8.40335 2.20113 8.04181 2.35093C7.68027 2.50074 7.35179 2.72031 7.07513 2.9971L6.50096 3.57126L5.92679 2.9971C5.36796 2.43826 4.61002 2.12431 3.81971 2.12431C3.0294 2.12431 2.27146 2.43826 1.71263 2.9971C1.15379 3.55593 0.839844 4.31387 0.839844 5.10418C0.839844 5.89449 1.15379 6.65243 1.71263 7.21126L2.28679 7.78543L6.50096 11.9996L10.7151 7.78543L11.2893 7.21126C11.5661 6.9346 11.7857 6.60612 11.9355 6.24458C12.0853 5.88304 12.1624 5.49553 12.1624 5.10418C12.1624 4.71283 12.0853 4.32532 11.9355 3.96378C11.7857 3.60224 11.5661 3.27376 11.2893 2.9971Z" stroke="#767676" stroke-width="1.5" stroke-linecap="round" stroke-linejoin="round"/>
</svg>
