<svg width="20" height="17" viewBox="0 0 20 17" fill="none" xmlns="http://www.w3.org/2000/svg">
<path d="M10.4795 1.72361C10.1979 1.58284 9.86657 1.58284 9.58504 1.72361L2.78886 5.1217C2.05181 5.49022 2.05181 6.54203 2.78885 6.91056L9.58504 10.3087C9.86657 10.4494 10.1979 10.4494 10.4795 10.3087L17.2757 6.91056C18.0127 6.54203 18.0127 5.49023 17.2757 5.1217L10.4795 1.72361Z" stroke="#024EA2" stroke-width="1.6" stroke-linecap="round" stroke-linejoin="round"/>
<path d="M4.60938 8.27412V12.1722C4.60938 12.551 4.82338 12.8973 5.16216 13.0666L9.58152 15.2763C9.86304 15.4171 10.1944 15.4171 10.4759 15.2763L14.8953 13.0666C15.2341 12.8973 15.4481 12.551 15.4481 12.1722V7.82251" stroke="#024EA2" stroke-width="1.6"/>
<path d="M0.95 11.4356C0.95 11.8774 1.30817 12.2356 1.75 12.2356C2.19183 12.2356 2.55 11.8774 2.55 11.4356H0.95ZM0.95 6.01624V11.4356H2.55V6.01624H0.95Z" fill="#024EA2"/>
</svg>
