<svg width="32" height="32" viewBox="0 0 32 32" fill="none" xmlns="http://www.w3.org/2000/svg">
<rect width="32" height="32" rx="16" fill="white" fill-opacity="0.3"/>
<path d="M23.4995 19.7304V21.9885C23.5004 22.1981 23.4574 22.4056 23.3732 22.5977C23.2891 22.7898 23.1657 22.9622 23.0109 23.1039C22.8561 23.2456 22.6734 23.3535 22.4744 23.4207C22.2754 23.4878 22.0646 23.5128 21.8554 23.4939C19.5346 23.2422 17.3053 22.4508 15.3467 21.1831C13.5244 20.0274 11.9794 18.4855 10.8215 16.6669C9.5469 14.7032 8.75368 12.4676 8.50612 10.141C8.48727 9.93282 8.51206 9.72303 8.5789 9.52497C8.64574 9.32691 8.75317 9.1449 8.89436 8.99055C9.03554 8.83619 9.20738 8.71287 9.39893 8.62843C9.59049 8.54398 9.79756 8.50027 10.007 8.50007H12.2696C12.6356 8.49648 12.9904 8.62583 13.2679 8.86403C13.5455 9.10222 13.7267 9.43301 13.778 9.79472C13.8734 10.5174 14.0506 11.2269 14.3059 11.9098C14.4074 12.1792 14.4293 12.472 14.3692 12.7535C14.309 13.035 14.1693 13.2934 13.9665 13.498L13.0087 14.4539C14.0823 16.3384 15.6457 17.8986 17.5338 18.9702L18.4917 18.0142C18.6967 17.8118 18.9556 17.6724 19.2377 17.6123C19.5197 17.5523 19.8131 17.5742 20.083 17.6755C20.7673 17.9303 21.4782 18.1071 22.2023 18.2024C22.5687 18.254 22.9033 18.4381 23.1424 18.7199C23.3816 19.0016 23.5087 19.3612 23.4995 19.7304Z" fill="white"/>
</svg>
