<svg width="32" height="32" viewBox="0 0 32 32" fill="none" xmlns="http://www.w3.org/2000/svg">
<rect width="32" height="32" rx="16" fill="white" fill-opacity="0.3"/>
<path d="M19.2867 12.8C20.6445 12.8 21.7453 11.7255 21.7453 10.4C21.7453 9.07452 20.6445 8 19.2867 8C17.9289 8 16.8281 9.07452 16.8281 10.4C16.8281 11.7255 17.9289 12.8 19.2867 12.8Z" stroke="white" stroke-width="1.8" stroke-linecap="round" stroke-linejoin="round"/>
<path d="M9.45858 18.4C10.8164 18.4 11.9172 17.3255 11.9172 16C11.9172 14.6745 10.8164 13.6 9.45858 13.6C8.10075 13.6 7 14.6745 7 16C7 17.3255 8.10075 18.4 9.45858 18.4Z" stroke="white" stroke-width="1.8" stroke-linecap="round" stroke-linejoin="round"/>
<path d="M19.2867 24C20.6445 24 21.7453 22.9254 21.7453 21.6C21.7453 20.2745 20.6445 19.2 19.2867 19.2C17.9289 19.2 16.8281 20.2745 16.8281 21.6C16.8281 22.9254 17.9289 24 19.2867 24Z" stroke="white" stroke-width="1.8" stroke-linecap="round" stroke-linejoin="round"/>
<path d="M11.5781 17.208L17.1755 20.392" stroke="white" stroke-width="1.8" stroke-linecap="round" stroke-linejoin="round"/>
<path d="M17.1673 11.608L11.5781 14.792" stroke="white" stroke-width="1.8" stroke-linecap="round" stroke-linejoin="round"/>
</svg>
