<svg width="24" height="24" viewBox="0 0 24 24" fill="none" xmlns="http://www.w3.org/2000/svg">
<path d="M16.3182 20.6819V18.7728C16.3182 17.7601 15.9159 16.789 15.1999 16.0729C14.4838 15.3569 13.5126 14.9546 12.5 14.9546H5.81818C4.80554 14.9546 3.83437 15.3569 3.11832 16.0729C2.40227 16.789 2 17.7601 2 18.7728V20.6819" stroke="white" stroke-width="2" stroke-linecap="round" stroke-linejoin="round"/>
<path d="M9.15909 11.1364C11.2678 11.1364 12.9773 9.42691 12.9773 7.31818C12.9773 5.20946 11.2678 3.5 9.15909 3.5C7.05037 3.5 5.34091 5.20946 5.34091 7.31818C5.34091 9.42691 7.05037 11.1364 9.15909 11.1364Z" stroke="white" stroke-width="2" stroke-linecap="round" stroke-linejoin="round"/>
<path d="M20.1364 8.27271V14" stroke="white" stroke-width="2" stroke-linecap="round" stroke-linejoin="round"/>
<path d="M23 11.1365H17.2727" stroke="white" stroke-width="2" stroke-linecap="round" stroke-linejoin="round"/>
</svg>
