<svg width="25" height="24" viewBox="0 0 25 24" fill="none" xmlns="http://www.w3.org/2000/svg">
<path d="M9.14062 3H5.14062C4.61019 3 4.10148 3.21071 3.72641 3.58579C3.35134 3.96086 3.14063 4.46957 3.14062 5V9M9.14062 3H19.1406C19.6711 3 20.1798 3.21071 20.5548 3.58579C20.9299 3.96086 21.1406 4.46957 21.1406 5V9M9.14062 3V21M3.14062 9V19C3.14063 19.5304 3.35134 20.0391 3.72641 20.4142C4.10148 20.7893 4.61019 21 5.14062 21H9.14062M3.14062 9H21.1406M21.1406 9V19C21.1406 19.5304 20.9299 20.0391 20.5548 20.4142C20.1798 20.7893 19.6711 21 19.1406 21H9.14062" stroke="black" stroke-linecap="round" stroke-linejoin="round"/>
</svg>
