<svg width="25" height="24" viewBox="0 0 25 24" fill="none" xmlns="http://www.w3.org/2000/svg">
<path d="M10.7891 13C11.2185 13.5741 11.7664 14.0491 12.3956 14.3929C13.0248 14.7367 13.7206 14.9411 14.4357 14.9923C15.1509 15.0435 15.8686 14.9403 16.5404 14.6897C17.2122 14.4392 17.8222 14.047 18.3291 13.54L21.3291 10.54C22.2399 9.59695 22.7438 8.33394 22.7324 7.02296C22.721 5.71198 22.1952 4.45791 21.2682 3.53087C20.3411 2.60383 19.0871 2.07799 17.7761 2.0666C16.4651 2.0552 15.2021 2.55918 14.2591 3.46997L12.5391 5.17997" stroke="black" stroke-linecap="round" stroke-linejoin="round"/>
<path d="M14.7873 11C14.3579 10.4259 13.81 9.9508 13.1808 9.60704C12.5516 9.26328 11.8558 9.05886 11.1407 9.00765C10.4255 8.95643 9.70772 9.05961 9.03596 9.3102C8.3642 9.56079 7.75419 9.95291 7.24731 10.46L4.24731 13.46C3.33652 14.403 2.83255 15.666 2.84394 16.977C2.85533 18.288 3.38118 19.542 4.30822 20.4691C5.23526 21.3961 6.48932 21.922 7.8003 21.9334C9.11129 21.9447 10.3743 21.4408 11.3173 20.53L13.0273 18.82" stroke="black" stroke-linecap="round" stroke-linejoin="round"/>
</svg>
