<svg width="25" height="24" viewBox="0 0 25 24" fill="none" xmlns="http://www.w3.org/2000/svg">
<g clip-path="url(#clip0_690_15132)">
<rect x="8.03125" y="6.4458" width="9.08096" height="10.5945" fill="white"/>
<path d="M12.5658 3.80469C12.5658 3.80469 4.7991 3.80469 2.84977 4.31122C1.80604 4.60285 0.946601 5.46229 0.654968 6.52138C0.148449 8.47071 0.148438 12.5076 0.148438 12.5076C0.148438 12.5076 0.148449 16.5598 0.654968 18.4785C0.946601 19.5376 1.79069 20.3817 2.84977 20.6733C4.81445 21.1952 12.5658 21.1952 12.5658 21.1952C12.5658 21.1952 20.3478 21.1952 22.2971 20.6886C23.3562 20.397 24.2003 19.5683 24.4766 18.4938C24.9984 16.5598 24.9984 12.523 24.9984 12.523C24.9984 12.523 25.0138 8.47071 24.4766 6.52138C24.2003 5.46229 23.3562 4.61822 22.2971 4.34193C20.3478 3.80471 12.5658 3.80469 12.5658 3.80469ZM10.0945 8.77785L16.5566 12.5076L10.0945 16.222V8.77785Z" fill="#FF0000"/>
</g>
<defs>
<clipPath id="clip0_690_15132">
<rect width="24" height="24" fill="white" transform="translate(0.5)"/>
</clipPath>
</defs>
</svg>
