<svg width="25" height="24" viewBox="0 0 25 24" fill="none" xmlns="http://www.w3.org/2000/svg">
<path d="M22.9266 9.90474C22.9266 7.74823 21.1784 6.00003 19.0219 6.00003C16.8654 6.00003 15.1172 7.74823 15.1172 9.90474C15.1172 12.0613 16.8654 13.8094 19.0219 13.8094C21.1784 13.8094 22.9266 12.0612 22.9266 9.90474Z" stroke="black" stroke-linecap="round" stroke-linejoin="round"/>
<path d="M14.1484 18.6903C16.4785 18.6903 18.7132 17.7647 20.3608 16.1171C22.0084 14.4694 22.934 12.2348 22.934 9.90471" stroke="black" stroke-linecap="round" stroke-linejoin="round"/>
<path d="M11.2079 9.90474C11.2079 7.74823 9.45966 6.00003 7.30315 6.00003C5.14664 6.00003 3.39844 7.74823 3.39844 9.90474C3.39844 12.0613 5.14664 13.8094 7.30315 13.8094C9.45966 13.8094 11.2079 12.0612 11.2079 9.90474Z" stroke="black" stroke-linecap="round" stroke-linejoin="round"/>
<path d="M2.42969 18.6903C4.75977 18.6903 6.99442 17.7647 8.64204 16.1171C10.2897 14.4694 11.2153 12.2348 11.2153 9.90471" stroke="black" stroke-linecap="round" stroke-linejoin="round"/>
</svg>
