<svg width="25" height="24" viewBox="0 0 25 24" fill="none" xmlns="http://www.w3.org/2000/svg">
<path d="M21.1818 10.5909C21.1818 17.2727 12.5909 23 12.5909 23C12.5909 23 4 17.2727 4 10.5909C4 8.31246 4.90511 6.12733 6.51622 4.51622C8.12733 2.90511 10.3125 2 12.5909 2C14.8694 2 17.0545 2.90511 18.6656 4.51622C20.2767 6.12733 21.1818 8.31246 21.1818 10.5909Z" stroke="black" stroke-linecap="round" stroke-linejoin="round"/>
<path d="M12.5902 13.4546C14.1717 13.4546 15.4538 12.1725 15.4538 10.5909C15.4538 9.00939 14.1717 7.72729 12.5902 7.72729C11.0087 7.72729 9.72656 9.00939 9.72656 10.5909C9.72656 12.1725 11.0087 13.4546 12.5902 13.4546Z" stroke="black" stroke-linecap="round" stroke-linejoin="round"/>
</svg>
