<svg width="25" height="24" viewBox="0 0 25 24" fill="none" xmlns="http://www.w3.org/2000/svg">
<path d="M21.2109 11.5C21.2144 12.8199 20.906 14.1219 20.3109 15.3C19.6054 16.7118 18.5207 17.8992 17.1784 18.7293C15.8361 19.5594 14.2892 19.9994 12.7109 20C11.3911 20.0035 10.0891 19.6951 8.91094 19.1L3.21094 21L5.11094 15.3C4.51587 14.1219 4.2075 12.8199 4.21094 11.5C4.21155 9.92179 4.65155 8.37488 5.48166 7.03258C6.31176 5.69028 7.49919 4.6056 8.91094 3.90003C10.0891 3.30496 11.3911 2.99659 12.7109 3.00003H13.2109C15.2953 3.11502 17.264 3.99479 18.7401 5.47089C20.2162 6.94699 21.0959 8.91568 21.2109 11V11.5Z" stroke="black" stroke-linecap="round" stroke-linejoin="round"/>
</svg>
