<svg width="25" height="24" viewBox="0 0 25 24" fill="none" xmlns="http://www.w3.org/2000/svg">
<path d="M16.4628 16.2771L12.6845 12.4988L8.90625 16.2771" stroke="black" stroke-linecap="round" stroke-linejoin="round"/>
<path d="M12.6875 12.4988V20.9999" stroke="black" stroke-linecap="round" stroke-linejoin="round"/>
<path d="M20.6094 18.5346C21.5306 18.0324 22.2584 17.2376 22.6779 16.2758C23.0973 15.314 23.1845 14.2399 22.9256 13.223C22.6668 12.2062 22.0767 11.3044 21.2485 10.6602C20.4203 10.0159 19.4011 9.66581 18.3518 9.66511H17.1617C16.8758 8.55925 16.3429 7.53259 15.6031 6.66231C14.8633 5.79204 13.9358 5.1008 12.8904 4.64056C11.845 4.18033 10.7089 3.96307 9.56742 4.00512C8.42596 4.04718 7.3089 4.34745 6.3002 4.88337C5.2915 5.41929 4.41741 6.1769 3.74366 7.09926C3.06991 8.02162 2.61402 9.08471 2.41026 10.2086C2.20651 11.3325 2.26019 12.488 2.56728 13.5882C2.87437 14.6883 3.42687 15.7046 4.18324 16.5605" stroke="black" stroke-linecap="round" stroke-linejoin="round"/>
</svg>
